<mxfile host="drawio-plugin" modified="2023-06-27T12:40:26.298Z" agent="5.0 (Windows NT 6.2; Win64; x64) AppleWebKit/537.36 (KHTML, like Gecko) Chrome/104.0.5112.102 Safari/537.36" etag="Fq5QcqVvYhRxlkR6S_PB" version="20.5.3" type="embed"><diagram name="Strona-1" id="XBDr2kZUVT0_4FQHaRds"><mxGraphModel dx="1093" dy="1113" grid="0" gridSize="10" guides="1" tooltips="1" connect="1" arrows="1" fold="1" page="0" pageScale="1" pageWidth="1654" pageHeight="2336" background="#072029" math="0" shadow="0"><root><object label="" id="0"><mxCell/></object><mxCell id="1" parent="0"/><mxCell id="ts6KQhoLqLEXD3TsmYE_-1" value="Reservation" style="swimlane;fontStyle=0;childLayout=stackLayout;horizontal=1;startSize=30;horizontalStack=0;resizeParent=1;resizeParentMax=0;resizeLast=0;collapsible=1;marginBottom=0;whiteSpace=wrap;html=1;hachureGap=4;fontFamily=Times New Roman;fontSize=20;fillColor=none;swimlaneLine=1;strokeColor=#666666;fontColor=#E4FDE1;rounded=0;sketch=0;" parent="1" vertex="1"><mxGeometry x="560" y="70" width="180" height="210" as="geometry"/></mxCell><mxCell id="ts6KQhoLqLEXD3TsmYE_-2" value="id" style="text;strokeColor=#666666;fillColor=none;align=left;verticalAlign=middle;spacingLeft=4;spacingRight=4;overflow=hidden;points=[[0,0.5],[1,0.5]];portConstraint=eastwest;rotatable=0;whiteSpace=wrap;html=1;fontSize=20;fontFamily=Times New Roman;fontColor=#E4FDE1;rounded=0;sketch=0;" parent="ts6KQhoLqLEXD3TsmYE_-1" vertex="1"><mxGeometry y="30" width="180" height="30" as="geometry"/></mxCell><mxCell id="ts6KQhoLqLEXD3TsmYE_-3" value="reservation_date" style="text;strokeColor=#666666;fillColor=none;align=left;verticalAlign=middle;spacingLeft=4;spacingRight=4;overflow=hidden;points=[[0,0.5],[1,0.5]];portConstraint=eastwest;rotatable=0;whiteSpace=wrap;html=1;fontSize=20;fontFamily=Times New Roman;fontColor=#E4FDE1;rounded=0;sketch=0;" parent="ts6KQhoLqLEXD3TsmYE_-1" vertex="1"><mxGeometry y="60" width="180" height="30" as="geometry"/></mxCell><mxCell id="45" value="stay_date_start" style="text;strokeColor=#666666;fillColor=none;align=left;verticalAlign=middle;spacingLeft=4;spacingRight=4;overflow=hidden;points=[[0,0.5],[1,0.5]];portConstraint=eastwest;rotatable=0;whiteSpace=wrap;html=1;fontSize=20;fontFamily=Times New Roman;fontColor=#E4FDE1;rounded=0;sketch=0;" vertex="1" parent="ts6KQhoLqLEXD3TsmYE_-1"><mxGeometry y="90" width="180" height="30" as="geometry"/></mxCell><mxCell id="ts6KQhoLqLEXD3TsmYE_-4" value="stay_date_end" style="text;strokeColor=#666666;fillColor=none;align=left;verticalAlign=middle;spacingLeft=4;spacingRight=4;overflow=hidden;points=[[0,0.5],[1,0.5]];portConstraint=eastwest;rotatable=0;whiteSpace=wrap;html=1;fontSize=20;fontFamily=Times New Roman;fontColor=#E4FDE1;rounded=0;sketch=0;" parent="ts6KQhoLqLEXD3TsmYE_-1" vertex="1"><mxGeometry y="120" width="180" height="30" as="geometry"/></mxCell><mxCell id="20" value="user_id" style="text;strokeColor=#666666;fillColor=none;align=left;verticalAlign=middle;spacingLeft=4;spacingRight=4;overflow=hidden;points=[[0,0.5],[1,0.5]];portConstraint=eastwest;rotatable=0;whiteSpace=wrap;html=1;fontSize=20;fontFamily=Times New Roman;fontColor=#E4FDE1;rounded=0;sketch=0;" parent="ts6KQhoLqLEXD3TsmYE_-1" vertex="1"><mxGeometry y="150" width="180" height="30" as="geometry"/></mxCell><mxCell id="39" value="price_entry_id" style="text;strokeColor=#666666;fillColor=none;align=left;verticalAlign=middle;spacingLeft=4;spacingRight=4;overflow=hidden;points=[[0,0.5],[1,0.5]];portConstraint=eastwest;rotatable=0;whiteSpace=wrap;html=1;fontSize=20;fontFamily=Times New Roman;fontColor=#E4FDE1;rounded=0;sketch=0;" parent="ts6KQhoLqLEXD3TsmYE_-1" vertex="1"><mxGeometry y="180" width="180" height="30" as="geometry"/></mxCell><mxCell id="2" value="Price_entry" style="swimlane;fontStyle=0;childLayout=stackLayout;horizontal=1;startSize=30;horizontalStack=0;resizeParent=1;resizeParentMax=0;resizeLast=0;collapsible=1;marginBottom=0;whiteSpace=wrap;html=1;hachureGap=4;fontFamily=Times New Roman;fontSize=20;fillColor=none;swimlaneLine=1;strokeColor=#666666;fontColor=#E4FDE1;rounded=0;sketch=0;" parent="1" vertex="1"><mxGeometry x="818" y="221" width="140" height="150" as="geometry"/></mxCell><mxCell id="3" value="id" style="text;strokeColor=#666666;fillColor=none;align=left;verticalAlign=middle;spacingLeft=4;spacingRight=4;overflow=hidden;points=[[0,0.5],[1,0.5]];portConstraint=eastwest;rotatable=0;whiteSpace=wrap;html=1;fontSize=20;fontFamily=Times New Roman;fontColor=#E4FDE1;rounded=0;sketch=0;" parent="2" vertex="1"><mxGeometry y="30" width="140" height="30" as="geometry"/></mxCell><mxCell id="4" value="start_date" style="text;strokeColor=#666666;fillColor=none;align=left;verticalAlign=middle;spacingLeft=4;spacingRight=4;overflow=hidden;points=[[0,0.5],[1,0.5]];portConstraint=eastwest;rotatable=0;whiteSpace=wrap;html=1;fontSize=20;fontFamily=Times New Roman;fontColor=#E4FDE1;rounded=0;sketch=0;" parent="2" vertex="1"><mxGeometry y="60" width="140" height="30" as="geometry"/></mxCell><mxCell id="29" value="end_date" style="text;strokeColor=#666666;fillColor=none;align=left;verticalAlign=middle;spacingLeft=4;spacingRight=4;overflow=hidden;points=[[0,0.5],[1,0.5]];portConstraint=eastwest;rotatable=0;whiteSpace=wrap;html=1;fontSize=20;fontFamily=Times New Roman;fontColor=#E4FDE1;rounded=0;sketch=0;" parent="2" vertex="1"><mxGeometry y="90" width="140" height="30" as="geometry"/></mxCell><mxCell id="5" value="price" style="text;strokeColor=#666666;fillColor=none;align=left;verticalAlign=middle;spacingLeft=4;spacingRight=4;overflow=hidden;points=[[0,0.5],[1,0.5]];portConstraint=eastwest;rotatable=0;whiteSpace=wrap;html=1;fontSize=20;fontFamily=Times New Roman;fontColor=#E4FDE1;rounded=0;sketch=0;" parent="2" vertex="1"><mxGeometry y="120" width="140" height="30" as="geometry"/></mxCell><mxCell id="10" value="User" style="swimlane;fontStyle=0;childLayout=stackLayout;horizontal=1;startSize=30;horizontalStack=0;resizeParent=1;resizeParentMax=0;resizeLast=0;collapsible=1;marginBottom=0;whiteSpace=wrap;html=1;hachureGap=4;fontFamily=Times New Roman;fontSize=20;fillColor=none;swimlaneLine=1;strokeColor=#666666;fontColor=#E4FDE1;rounded=0;sketch=0;" parent="1" vertex="1"><mxGeometry x="352" y="354" width="140" height="210" as="geometry"/></mxCell><mxCell id="11" value="id" style="text;strokeColor=#666666;fillColor=none;align=left;verticalAlign=middle;spacingLeft=4;spacingRight=4;overflow=hidden;points=[[0,0.5],[1,0.5]];portConstraint=eastwest;rotatable=0;whiteSpace=wrap;html=1;fontSize=20;fontFamily=Times New Roman;fontColor=#E4FDE1;rounded=0;sketch=0;" parent="10" vertex="1"><mxGeometry y="30" width="140" height="30" as="geometry"/></mxCell><mxCell id="13" value="first_name" style="text;strokeColor=#666666;fillColor=none;align=left;verticalAlign=middle;spacingLeft=4;spacingRight=4;overflow=hidden;points=[[0,0.5],[1,0.5]];portConstraint=eastwest;rotatable=0;whiteSpace=wrap;html=1;fontSize=20;fontFamily=Times New Roman;fontColor=#E4FDE1;rounded=0;sketch=0;" parent="10" vertex="1"><mxGeometry y="60" width="140" height="30" as="geometry"/></mxCell><mxCell id="24" value="last_name" style="text;strokeColor=#666666;fillColor=none;align=left;verticalAlign=middle;spacingLeft=4;spacingRight=4;overflow=hidden;points=[[0,0.5],[1,0.5]];portConstraint=eastwest;rotatable=0;whiteSpace=wrap;html=1;fontSize=20;fontFamily=Times New Roman;fontColor=#E4FDE1;rounded=0;sketch=0;" parent="10" vertex="1"><mxGeometry y="90" width="140" height="30" as="geometry"/></mxCell><mxCell id="25" value="email" style="text;strokeColor=#666666;fillColor=none;align=left;verticalAlign=middle;spacingLeft=4;spacingRight=4;overflow=hidden;points=[[0,0.5],[1,0.5]];portConstraint=eastwest;rotatable=0;whiteSpace=wrap;html=1;fontSize=20;fontFamily=Times New Roman;fontColor=#E4FDE1;rounded=0;sketch=0;" parent="10" vertex="1"><mxGeometry y="120" width="140" height="30" as="geometry"/></mxCell><mxCell id="26" value="password" style="text;strokeColor=#666666;fillColor=none;align=left;verticalAlign=middle;spacingLeft=4;spacingRight=4;overflow=hidden;points=[[0,0.5],[1,0.5]];portConstraint=eastwest;rotatable=0;whiteSpace=wrap;html=1;fontSize=20;fontFamily=Times New Roman;fontColor=#E4FDE1;rounded=0;sketch=0;" parent="10" vertex="1"><mxGeometry y="150" width="140" height="30" as="geometry"/></mxCell><mxCell id="27" value="role" style="text;strokeColor=#666666;fillColor=none;align=left;verticalAlign=middle;spacingLeft=4;spacingRight=4;overflow=hidden;points=[[0,0.5],[1,0.5]];portConstraint=eastwest;rotatable=0;whiteSpace=wrap;html=1;fontSize=20;fontFamily=Times New Roman;fontColor=#E4FDE1;rounded=0;sketch=0;" parent="10" vertex="1"><mxGeometry y="180" width="140" height="30" as="geometry"/></mxCell><mxCell id="23" value="" style="edgeStyle=orthogonalEdgeStyle;fontSize=12;html=1;endArrow=ERmany;rounded=0;exitX=1;exitY=0.5;exitDx=0;exitDy=0;entryX=0;entryY=0.5;entryDx=0;entryDy=0;strokeColor=#666666;fontColor=#E4FDE1;sketch=0;labelBackgroundColor=#114B5F;fontFamily=Times New Roman;" parent="1" source="11" target="20" edge="1"><mxGeometry width="100" height="100" relative="1" as="geometry"><mxPoint x="420" y="360" as="sourcePoint"/><mxPoint x="520" y="260" as="targetPoint"/></mxGeometry></mxCell><mxCell id="31" value="Payment" style="swimlane;fontStyle=0;childLayout=stackLayout;horizontal=1;startSize=30;horizontalStack=0;resizeParent=1;resizeParentMax=0;resizeLast=0;collapsible=1;marginBottom=0;whiteSpace=wrap;html=1;hachureGap=4;fontFamily=Times New Roman;fontSize=20;fillColor=none;swimlaneLine=1;strokeColor=#666666;fontColor=#E4FDE1;rounded=0;sketch=0;" parent="1" vertex="1"><mxGeometry x="818" y="-20" width="140" height="150" as="geometry"/></mxCell><mxCell id="32" value="id" style="text;strokeColor=#666666;fillColor=none;align=left;verticalAlign=middle;spacingLeft=4;spacingRight=4;overflow=hidden;points=[[0,0.5],[1,0.5]];portConstraint=eastwest;rotatable=0;whiteSpace=wrap;html=1;fontSize=20;fontFamily=Times New Roman;fontColor=#E4FDE1;rounded=0;sketch=0;" parent="31" vertex="1"><mxGeometry y="30" width="140" height="30" as="geometry"/></mxCell><mxCell id="34" value="payment_method" style="text;strokeColor=#666666;fillColor=none;align=left;verticalAlign=middle;spacingLeft=4;spacingRight=4;overflow=hidden;points=[[0,0.5],[1,0.5]];portConstraint=eastwest;rotatable=0;whiteSpace=wrap;html=1;fontSize=20;fontFamily=Times New Roman;fontColor=#E4FDE1;rounded=0;sketch=0;" parent="31" vertex="1"><mxGeometry y="60" width="140" height="30" as="geometry"/></mxCell><mxCell id="35" value="payment_status" style="text;strokeColor=#666666;fillColor=none;align=left;verticalAlign=middle;spacingLeft=4;spacingRight=4;overflow=hidden;points=[[0,0.5],[1,0.5]];portConstraint=eastwest;rotatable=0;whiteSpace=wrap;html=1;fontSize=20;fontFamily=Times New Roman;fontColor=#E4FDE1;rounded=0;sketch=0;" parent="31" vertex="1"><mxGeometry y="90" width="140" height="30" as="geometry"/></mxCell><mxCell id="42" value="reservation_id" style="text;strokeColor=#666666;fillColor=none;align=left;verticalAlign=middle;spacingLeft=4;spacingRight=4;overflow=hidden;points=[[0,0.5],[1,0.5]];portConstraint=eastwest;rotatable=0;whiteSpace=wrap;html=1;fontSize=20;fontFamily=Times New Roman;fontColor=#E4FDE1;rounded=0;sketch=0;" parent="31" vertex="1"><mxGeometry y="120" width="140" height="30" as="geometry"/></mxCell><mxCell id="40" value="" style="edgeStyle=orthogonalEdgeStyle;fontSize=12;html=1;endArrow=ERmany;rounded=0;exitX=0;exitY=0.5;exitDx=0;exitDy=0;entryX=1;entryY=0.5;entryDx=0;entryDy=0;strokeColor=#666666;fontColor=#E4FDE1;sketch=0;labelBackgroundColor=#114B5F;fontFamily=Times New Roman;" parent="1" source="3" target="39" edge="1"><mxGeometry width="100" height="100" relative="1" as="geometry"><mxPoint x="649" y="571" as="sourcePoint"/><mxPoint x="717" y="407" as="targetPoint"/></mxGeometry></mxCell><mxCell id="44" value="" style="edgeStyle=orthogonalEdgeStyle;fontSize=12;html=1;endArrow=ERmany;rounded=0;exitX=1;exitY=0.5;exitDx=0;exitDy=0;entryX=0;entryY=0.5;entryDx=0;entryDy=0;strokeColor=#666666;fontColor=#E4FDE1;sketch=0;labelBackgroundColor=#114B5F;fontFamily=Times New Roman;" parent="1" source="ts6KQhoLqLEXD3TsmYE_-2" target="42" edge="1"><mxGeometry width="100" height="100" relative="1" as="geometry"><mxPoint x="860" y="147" as="sourcePoint"/><mxPoint x="782" y="147" as="targetPoint"/></mxGeometry></mxCell></root></mxGraphModel></diagram></mxfile>